<svg xmlns="http://www.w3.org/2000/svg" viewBox="0 0 1088 590">
  <g id="anime-logo-lines" fill="none" fill-rule="evenodd" stroke-linecap="square">
    <path id="stroke" stroke="#FF1461" stroke-width="4" d="M0 240h352c13.255 0 24 10.745 24 24v64c0 13.255-10.745 24-24 24h-80c-13.255 0-24-10.745-24-24v-32c0-13.255 10.745-24 24-24h80c13.255 0 24 10.745 24 24v40c0 8.837 7.163 16 16 16h8a8 8 0 0 0 8-8v-80a8 8 0 0 1 8-8h80a8 8 0 0 1 8 8v80a8 8 0 0 0 8 8h16a8 8 0 0 0 8-8V240v104a8 8 0 0 0 8 8h16a8 8 0 0 0 8-8v-80c0-13.255 10.745-24 24-24h80c13.255 0 24 10.745 24 24v80a8 8 0 0 0 8 8h8c8.837 0 16-7.163 16-16v-16c0-8.837 7.163-16 16-16h72a8 8 0 0 0 8-8v-32a8 8 0 0 0-8-8h-80a8 8 0 0 0-8 8v64a8 8 0 0 0 8 8h352"/>
    <path id="stroke" stroke="#FF48AB" stroke-width="4" d="M0 256h352a8 8 0 0 1 8 8l-.068 64.008a8 8 0 0 1-8 7.992H271.99a8 8 0 0 1-8-8v-32a8 8 0 0 1 8-8h79.952a8 8 0 0 1 8 7.992l.042 40.025c.01 8.83 7.17 15.983 16 15.983H384a8 8 0 0 0 8-8v-80c0-13.255 10.745-24 24-24h80c13.255 0 24 10.745 24 24v80a8 8 0 0 0 8 8h16a8 8 0 0 0 8-8V240v104a8 8 0 0 0 8 8h16a8 8 0 0 0 8-8v-80a8 8 0 0 1 8-8h80a8 8 0 0 1 8 8v80a8 8 0 0 0 8 8h8c8.837 0 16-7.163 16-16s7.163-16 16-16h88c13.255 0 24-10.745 24-24v-32c0-13.255-10.745-24-24-24h-80c-13.255 0-24 10.745-24 24v64c0 13.255 10.745 24 24 24h352"/>
  </g>
</svg>
