<svg xmlns="http://www.w3.org/2000/svg" viewBox="0 0 1500 1500">
  <g id="sphere-copy-2" fill="none" fill-rule="evenodd">
    <g id="Group" stroke-width="8" transform="translate(53 51)">
      <path id="elipse" stroke="#FF1461" d="M1204.57 1204.07c-85.914 85.916-179.94 131.188-210.01 101.117-30.07-30.07 15.201-124.095 101.117-210.01 85.915-85.916 179.94-131.187 210.01-101.117 30.07 30.07-15.2 124.096-101.116 210.01z"/>
      <path id="elipse" stroke="#FF7C72" d="M1201.743 1201.243c-128.483 128.482-269.046 196.23-313.956 151.32-44.91-44.91 22.838-185.473 151.321-313.955 128.482-128.483 269.045-196.231 313.955-151.32 44.91 44.91-22.838 185.472-151.32 313.955z"/>
      <path id="elipse" stroke="#FB89FB" d="M1193.61 1192.404c-159.919 159.92-336.097 243.022-393.504 185.615-57.407-57.407 25.696-233.585 185.615-393.505 159.92-159.92 336.098-243.022 393.505-185.615 57.407 57.407-25.696 233.585-185.615 393.505z"/>
      <path id="elipse" stroke="#61C3FF" d="M1170.63 1170.13c-185.89 185.89-391.352 281.814-458.912 214.253-67.561-67.56 28.363-273.023 214.253-458.912 185.89-185.89 391.351-281.814 458.912-214.253 67.56 67.56-28.364 273.022-214.253 458.912z"/>
      <path id="elipse" stroke="#5EF3FB" d="M1143.053 1142.553c-209.712 209.711-441.45 317.982-517.603 241.83-76.152-76.152 32.12-307.89 241.831-517.602 209.712-209.712 441.45-317.983 517.602-241.83 76.152 76.152-32.119 307.89-241.83 517.602z"/>
      <path id="elipse" stroke="#18FF92" d="M1108.05 1106.844c-229.432 229.433-483.015 347.835-566.392 264.458-83.377-83.377 35.025-336.96 264.458-566.393 229.433-229.433 483.016-347.835 566.393-264.458 83.377 83.377-35.025 336.96-264.458 566.393z"/>
      <path id="elipse" stroke="#1CE2B2" d="M1067.392 1066.892c-245.249 245.25-516.877 371.25-606.697 281.429-89.821-89.82 36.179-361.449 281.428-606.698 245.25-245.25 516.877-371.249 606.698-281.428 89.82 89.82-36.18 361.448-281.429 606.697z"/>
      <path id="elipse" stroke="#B08CFF" d="M1019.309 1018.809c-261.26 261.26-550.617 395.492-646.296 299.813-95.678-95.678 38.553-385.035 299.814-646.295 261.26-261.261 550.617-395.492 646.295-299.814 95.679 95.679-38.552 385.035-299.813 646.296z"/>
      <path id="elipse" stroke="#FBF38C" d="M959.205 958.705c-269.071 269.071-567.134 407.26-665.741 308.652-98.608-98.607 39.58-396.67 308.652-665.741 269.071-269.071 567.134-407.26 665.741-308.652 98.607 98.607-39.58 396.67-308.652 665.74z"/>
      <path id="elipse" stroke="#FF7C72" d="M887.787 887.287c-271.414 271.414-572.01 410.87-671.398 311.48-99.388-99.388 40.066-399.983 311.48-671.397 271.415-271.415 572.01-410.87 671.399-311.48 99.388 99.388-40.067 399.983-311.48 671.397z"/>
      <path id="elipse" stroke="#FF48AB" d="M811.42 810.92c-269.072 269.07-567.134 407.26-665.741 308.652-98.608-98.608 39.58-396.67 308.652-665.741 269.07-269.072 567.133-407.26 665.74-308.652 98.608 98.607-39.58 396.67-308.651 665.74z"/>
      <path id="elipse" stroke="#FF1461" d="M739.295 738.795c-261.261 261.26-550.617 395.491-646.296 299.813-95.678-95.678 38.553-385.035 299.813-646.296C654.073 131.052 943.43-3.179 1039.108 92.5c95.678 95.679-38.553 385.035-299.813 646.296z"/>
      <path id="elipse" stroke="#A6FF8F" d="M670.705 670.205c-245.249 245.25-516.877 371.25-606.697 281.429-89.82-89.82 36.179-361.449 281.428-606.698C590.686 99.686 862.313-26.313 952.134 63.508c89.82 89.82-36.18 361.448-281.429 606.697z"/>
      <path id="elipse" stroke="#FF7C72" d="M608.126 606.92C378.693 836.351 125.111 954.753 41.734 871.376-41.643 788 76.759 534.417 306.192 304.985 535.625 75.552 789.207-42.85 872.584 40.527c83.377 83.377-35.025 336.96-264.458 566.392z"/>
      <path id="elipse" stroke="#FBF38C" d="M542.719 542.219c-209.712 209.712-441.45 317.983-517.602 241.83-76.152-76.152 32.119-307.89 241.83-517.602C476.66 56.736 708.397-51.535 784.55 24.617c76.152 76.152-32.12 307.89-241.831 517.602z"/>
      <path id="elipse" stroke="#5A87FF" d="M484.03 483.53C298.14 669.418 92.677 765.342 25.116 697.781-42.443 630.222 53.48 424.76 239.37 238.87 425.26 52.98 630.722-42.944 698.282 24.617c67.561 67.56-28.363 273.023-214.253 458.912z"/>
      <path id="elipse" stroke="#B08CFF" d="M424.986 423.779C265.066 583.699 88.888 666.8 31.48 609.394-25.926 551.987 57.177 375.81 217.096 215.89 377.016 55.97 553.194-27.133 610.601 30.274c57.407 57.407-25.696 233.585-185.615 393.505z"/>
      <path id="elipse" stroke="#5EF3FB" d="M370.892 370.392C242.41 498.875 101.847 566.623 56.937 521.712c-44.91-44.91 22.838-185.472 151.32-313.955C336.74 79.275 477.303 11.527 522.213 56.437c44.91 44.91-22.838 185.473-151.321 313.955z"/>
      <path id="elipse" stroke="#1CE2B2" d="M314.324 313.824c-85.916 85.915-179.94 131.186-210.011 101.116-30.07-30.07 15.2-124.096 101.116-210.01 85.915-85.916 179.94-131.188 210.01-101.117 30.071 30.07-15.2 124.095-101.115 210.01z"/>
    </g>
    <rect id="Rectangle-38" width="1500" height="1500" fill="#0B0B17" fill-opacity="0"/>
  </g>
</svg>
