<svg xmlns="http://www.w3.org/2000/svg" viewBox="0 0 1600 1600">
  <g id="sphere" fill="none" fill-rule="evenodd">
    <path id="elipse" stroke="#FF1461" stroke-width="8" d="M1307.57 1305.07c-85.914 85.916-179.94 131.188-210.01 101.117-30.07-30.07 15.201-124.095 101.117-210.01 85.915-85.916 179.94-131.187 210.01-101.117 30.07 30.07-15.2 124.096-101.116 210.01z"/>
    <path id="elipse" stroke="#FF7C72" stroke-width="8" d="M1304.743 1302.243c-128.483 128.482-269.046 196.23-313.956 151.32-44.91-44.91 22.838-185.473 151.321-313.955 128.482-128.483 269.045-196.231 313.955-151.32 44.91 44.91-22.838 185.472-151.32 313.955z"/>
    <path id="elipse" stroke="#FB89FB" stroke-width="8" d="M1296.61 1293.404c-159.919 159.92-336.097 243.022-393.504 185.615-57.407-57.407 25.696-233.585 185.615-393.505 159.92-159.92 336.098-243.022 393.505-185.615 57.407 57.407-25.696 233.585-185.615 393.505z"/>
    <path id="elipse" stroke="#61C3FF" stroke-width="8" d="M1273.63 1271.13c-185.89 185.89-391.352 281.814-458.912 214.253-67.561-67.56 28.363-273.023 214.253-458.912 185.89-185.89 391.351-281.814 458.912-214.253 67.56 67.56-28.364 273.022-214.253 458.912z"/>
    <path id="elipse" stroke="#5EF3FB" stroke-width="8" d="M1246.053 1243.553c-209.712 209.711-441.45 317.982-517.603 241.83-76.152-76.152 32.12-307.89 241.831-517.602 209.712-209.712 441.45-317.983 517.602-241.83 76.152 76.152-32.119 307.89-241.83 517.602z"/>
    <path id="elipse" stroke="#18FF92" stroke-width="8" d="M1211.05 1207.844c-229.432 229.433-483.015 347.835-566.392 264.458-83.377-83.377 35.025-336.96 264.458-566.393 229.433-229.433 483.016-347.835 566.393-264.458 83.377 83.377-35.025 336.96-264.458 566.393z"/>
    <path id="elipse" stroke="#1CE2B2" stroke-width="8" d="M1170.392 1167.892c-245.249 245.25-516.877 371.25-606.697 281.429-89.821-89.82 36.179-361.449 281.428-606.698 245.25-245.25 516.877-371.249 606.698-281.428 89.82 89.82-36.18 361.448-281.429 606.697z"/>
    <path id="elipse" stroke="#B08CFF" stroke-width="8" d="M1122.309 1119.809c-261.26 261.26-550.617 395.492-646.296 299.813-95.678-95.678 38.553-385.035 299.814-646.295 261.26-261.261 550.617-395.492 646.295-299.814 95.679 95.679-38.552 385.035-299.813 646.296z"/>
    <path id="elipse" stroke="#FBF38C" stroke-width="8" d="M1062.205 1059.705c-269.071 269.071-567.134 407.26-665.741 308.652-98.608-98.607 39.58-396.67 308.652-665.741 269.071-269.071 567.134-407.26 665.741-308.652 98.607 98.607-39.58 396.67-308.652 665.74z"/>
    <path id="elipse" stroke="#FF7C72" stroke-width="8" d="M990.787 988.287c-271.414 271.414-572.01 410.87-671.398 311.48-99.388-99.388 40.066-399.983 311.48-671.397 271.415-271.415 572.01-410.87 671.399-311.48 99.388 99.388-40.067 399.983-311.48 671.397z"/>
    <path id="elipse" stroke="#FF48AB" stroke-width="8" d="M914.42 911.92c-269.072 269.07-567.134 407.26-665.741 308.652-98.608-98.608 39.58-396.67 308.652-665.741 269.07-269.072 567.133-407.26 665.74-308.652 98.608 98.607-39.58 396.67-308.651 665.74z"/>
    <path id="elipse" stroke="#FF1461" stroke-width="8" d="M842.295 839.795c-261.261 261.26-550.617 395.491-646.296 299.813-95.678-95.678 38.553-385.035 299.813-646.296C757.073 232.052 1046.43 97.821 1142.108 193.5c95.678 95.679-38.553 385.035-299.813 646.296z"/>
    <path id="elipse" stroke="#A6FF8F" stroke-width="8" d="M773.705 771.205c-245.249 245.25-516.877 371.25-606.697 281.429-89.82-89.82 36.179-361.449 281.428-606.698 245.25-245.25 516.877-371.249 606.698-281.428 89.82 89.82-36.18 361.448-281.429 606.697z"/>
    <path id="elipse" stroke="#FF7C72" stroke-width="8" d="M711.126 707.92c-229.433 229.432-483.015 347.834-566.392 264.457C61.357 889 179.759 635.417 409.192 405.985 638.625 176.552 892.207 58.15 975.584 141.527c83.377 83.377-35.025 336.96-264.458 566.392z"/>
    <path id="elipse" stroke="#FBF38C" stroke-width="8" d="M645.719 643.219c-209.712 209.712-441.45 317.983-517.602 241.83-76.152-76.152 32.119-307.89 241.83-517.602C579.66 157.736 811.397 49.465 887.55 125.617c76.152 76.152-32.12 307.89-241.831 517.602z"/>
    <path id="elipse" stroke="#5A87FF" stroke-width="8" d="M587.03 584.53C401.14 770.418 195.677 866.342 128.116 798.781 60.557 731.222 156.48 525.76 342.37 339.87 528.26 153.98 733.722 58.056 801.282 125.617c67.561 67.56-28.363 273.023-214.253 458.912z"/>
    <path id="elipse" stroke="#B08CFF" stroke-width="8" d="M527.986 524.779C368.066 684.699 191.888 767.8 134.48 710.394 77.074 652.987 160.177 476.81 320.096 316.89c159.92-159.92 336.098-243.022 393.505-185.615 57.407 57.407-25.696 233.585-185.615 393.505z"/>
    <path id="elipse" stroke="#5EF3FB" stroke-width="8" d="M473.892 471.392C345.41 599.875 204.847 667.623 159.937 622.712c-44.91-44.91 22.838-185.472 151.32-313.955 128.483-128.482 269.046-196.23 313.956-151.32 44.91 44.91-22.838 185.473-151.321 313.955z"/>
    <path id="elipse" stroke="#1CE2B2" stroke-width="8" d="M417.324 414.824c-85.916 85.915-179.94 131.186-210.011 101.116-30.07-30.07 15.2-124.096 101.116-210.01 85.915-85.916 179.94-131.188 210.01-101.117 30.071 30.07-15.2 124.095-101.115 210.01z"/>
  </g>
</svg>
